<?xml version="1.0" standalone="no"?>
<!DOCTYPE svg PUBLIC "-//W3C//DTD SVG 20010904//EN"
 "http://www.w3.org/TR/2001/REC-SVG-20010904/DTD/svg10.dtd">
<svg version="1.0" xmlns="http://www.w3.org/2000/svg"
 width="512.000000pt" height="512.000000pt" viewBox="0 0 512.000000 512.000000"
 preserveAspectRatio="xMidYMid meet">
<metadata>
Created by potrace 1.14, written by Peter Selinger 2001-2017
</metadata>
<g transform="translate(0.000000,512.000000) scale(0.100000,-0.100000)"
fill="#000000" stroke="none">
<path d="M2470 5114 c-229 -43 -410 -211 -466 -433 -12 -49 -16 -120 -18 -294
-1 -193 -3 -231 -16 -238 -8 -4 -62 -30 -120 -58 -112 -53 -241 -135 -321
-202 l-49 -41 -92 92 c-149 149 -191 178 -308 210 -206 57 -439 -43 -539 -230
-56 -104 -69 -174 -58 -305 4 -44 36 -134 65 -179 31 -49 57 -78 260 -281 148
-149 161 -166 153 -188 -5 -13 -12 -48 -16 -77 -4 -29 -9 -62 -12 -74 -9 -37
-10 -799 -1 -872 5 -38 10 -85 13 -105 10 -93 80 -321 124 -407 l20 -38 -111
-110 c-118 -116 -175 -194 -207 -279 -46 -123 -46 -267 0 -390 117 -314 471
-456 774 -309 79 38 87 44 240 196 l111 109 69 -29 c39 -16 100 -37 137 -47
l67 -18 62 -156 c65 -163 87 -205 140 -266 74 -84 185 -115 276 -75 99 42 162
134 252 365 l50 130 73 21 c40 12 103 33 139 47 l65 25 135 -131 c105 -103
148 -139 199 -163 118 -57 156 -66 281 -65 330 3 589 316 537 650 -5 31 -13
65 -18 76 -5 11 -18 42 -29 68 -30 70 -75 128 -195 247 -64 64 -102 108 -97
115 15 18 78 189 99 265 52 194 56 250 56 675 0 384 -4 497 -24 564 -5 17 -7
31 -5 31 3 0 0 12 -5 26 -9 24 2 37 181 217 104 106 203 212 219 236 30 45 66
129 75 178 6 36 7 142 1 169 -19 86 -65 185 -113 239 -28 31 -104 91 -142 110
-126 64 -287 67 -419 9 -68 -30 -113 -65 -228 -182 l-94 -94 -47 40 c-85 70
-211 150 -327 206 -63 31 -118 56 -124 56 -5 0 -9 96 -10 239 0 215 -3 246
-22 312 -55 185 -193 329 -371 389 -62 21 -213 34 -269 24z"/>
</g>
</svg>
